<svg id="visual" viewBox="0 0 900 600" width="900" height="600" xmlns="http://www.w3.org/2000/svg" xmlns:xlink="http://www.w3.org/1999/xlink" version="1.1"><rect x="0" y="0" width="900" height="600" fill="#002233"></rect><path d="M0 453L21.5 457C43 461 86 469 128.8 478.3C171.7 487.7 214.3 498.3 257.2 503C300 507.7 343 506.3 385.8 494C428.7 481.7 471.3 458.3 514.2 438C557 417.7 600 400.3 642.8 409.8C685.7 419.3 728.3 455.7 771.2 473.7C814 491.7 857 491.3 878.5 491.2L900 491L900 601L878.5 601C857 601 814 601 771.2 601C728.3 601 685.7 601 642.8 601C600 601 557 601 514.2 601C471.3 601 428.7 601 385.8 601C343 601 300 601 257.2 601C214.3 601 171.7 601 128.8 601C86 601 43 601 21.5 601L0 601Z" fill="#0066FF" stroke-linecap="round" stroke-linejoin="miter"></path></svg>